<mxfile host="app.diagrams.net" modified="2023-10-18T08:51:59.558Z" agent="Mozilla/5.0 (Windows NT 10.0; Win64; x64) AppleWebKit/537.36 (KHTML, like Gecko) Chrome/118.0.0.0 Safari/537.36" etag="DX1o25ZLLZXVeuVhurUG" version="22.0.4" type="github">
  <diagram name="PÃ¡gina-1" id="B_YUauBdt4ndDx0U4x7B">
    <mxGraphModel dx="2261" dy="782" grid="1" gridSize="10" guides="1" tooltips="1" connect="1" arrows="1" fold="1" page="1" pageScale="1" pageWidth="827" pageHeight="1169" math="0" shadow="0">
      <root>
        <mxCell id="0" />
        <mxCell id="1" parent="0" />
        <mxCell id="vRgjC-KuwLONajDQIYyj-1" value="Usuario" style="whiteSpace=wrap;html=1;align=center;" parent="1" vertex="1">
          <mxGeometry x="60" y="280" width="100" height="40" as="geometry" />
        </mxCell>
        <mxCell id="vRgjC-KuwLONajDQIYyj-2" value="Nombre_usuario" style="ellipse;whiteSpace=wrap;html=1;align=center;fontStyle=4;" parent="1" vertex="1">
          <mxGeometry x="-90" y="120" width="100" height="40" as="geometry" />
        </mxCell>
        <mxCell id="vRgjC-KuwLONajDQIYyj-3" value="fecha_nacimiento" style="ellipse;whiteSpace=wrap;html=1;align=center;" parent="1" vertex="1">
          <mxGeometry x="-90" y="200" width="100" height="40" as="geometry" />
        </mxCell>
        <mxCell id="vRgjC-KuwLONajDQIYyj-4" value="fecha_creacion" style="ellipse;whiteSpace=wrap;html=1;align=center;" parent="1" vertex="1">
          <mxGeometry x="-215" y="200" width="110" height="40" as="geometry" />
        </mxCell>
        <mxCell id="vRgjC-KuwLONajDQIYyj-5" value="email" style="ellipse;whiteSpace=wrap;html=1;align=center;" parent="1" vertex="1">
          <mxGeometry x="-330" y="200" width="100" height="40" as="geometry" />
        </mxCell>
        <mxCell id="vRgjC-KuwLONajDQIYyj-6" value="password" style="ellipse;whiteSpace=wrap;html=1;align=center;" parent="1" vertex="1">
          <mxGeometry x="-210" y="120" width="100" height="40" as="geometry" />
        </mxCell>
        <mxCell id="vRgjC-KuwLONajDQIYyj-7" value="Nombre" style="ellipse;whiteSpace=wrap;html=1;align=center;" parent="1" vertex="1">
          <mxGeometry x="-330" y="120" width="100" height="40" as="geometry" />
        </mxCell>
        <mxCell id="vRgjC-KuwLONajDQIYyj-8" value="Seguir" style="shape=rhombus;perimeter=rhombusPerimeter;whiteSpace=wrap;html=1;align=center;" parent="1" vertex="1">
          <mxGeometry x="170" y="170" width="120" height="60" as="geometry" />
        </mxCell>
        <mxCell id="vRgjC-KuwLONajDQIYyj-9" value="0, N" style="text;strokeColor=none;fillColor=none;spacingLeft=4;spacingRight=4;overflow=hidden;rotatable=0;points=[[0,0.5],[1,0.5]];portConstraint=eastwest;fontSize=12;whiteSpace=wrap;html=1;" parent="1" vertex="1">
          <mxGeometry x="210" y="260" width="40" height="30" as="geometry" />
        </mxCell>
        <mxCell id="vRgjC-KuwLONajDQIYyj-10" value="0, N" style="text;strokeColor=none;fillColor=none;spacingLeft=4;spacingRight=4;overflow=hidden;rotatable=0;points=[[0,0.5],[1,0.5]];portConstraint=eastwest;fontSize=12;whiteSpace=wrap;html=1;" parent="1" vertex="1">
          <mxGeometry x="90" y="230" width="40" height="30" as="geometry" />
        </mxCell>
        <mxCell id="vRgjC-KuwLONajDQIYyj-11" value="" style="endArrow=none;html=1;rounded=0;exitX=1;exitY=0;exitDx=0;exitDy=0;entryX=0;entryY=0.5;entryDx=0;entryDy=0;" parent="1" source="vRgjC-KuwLONajDQIYyj-1" target="vRgjC-KuwLONajDQIYyj-9" edge="1">
          <mxGeometry relative="1" as="geometry">
            <mxPoint x="310" y="470" as="sourcePoint" />
            <mxPoint x="220" y="280" as="targetPoint" />
            <Array as="points">
              <mxPoint x="160" y="275" />
            </Array>
          </mxGeometry>
        </mxCell>
        <mxCell id="vRgjC-KuwLONajDQIYyj-12" value="" style="endArrow=none;html=1;rounded=0;exitX=1;exitY=0.5;exitDx=0;exitDy=0;entryX=1;entryY=0.5;entryDx=0;entryDy=0;" parent="1" source="vRgjC-KuwLONajDQIYyj-8" target="vRgjC-KuwLONajDQIYyj-9" edge="1">
          <mxGeometry relative="1" as="geometry">
            <mxPoint x="170" y="310" as="sourcePoint" />
            <mxPoint x="220" y="310" as="targetPoint" />
            <Array as="points">
              <mxPoint x="290" y="275" />
            </Array>
          </mxGeometry>
        </mxCell>
        <mxCell id="vRgjC-KuwLONajDQIYyj-13" value="" style="endArrow=none;html=1;rounded=0;exitX=0.5;exitY=1.1;exitDx=0;exitDy=0;entryX=0.5;entryY=0;entryDx=0;entryDy=0;exitPerimeter=0;" parent="1" source="vRgjC-KuwLONajDQIYyj-10" target="vRgjC-KuwLONajDQIYyj-1" edge="1">
          <mxGeometry relative="1" as="geometry">
            <mxPoint x="180" y="320" as="sourcePoint" />
            <mxPoint x="230" y="320" as="targetPoint" />
          </mxGeometry>
        </mxCell>
        <mxCell id="vRgjC-KuwLONajDQIYyj-14" value="" style="endArrow=none;html=1;rounded=0;exitX=0;exitY=0.5;exitDx=0;exitDy=0;entryX=0.5;entryY=-0.133;entryDx=0;entryDy=0;entryPerimeter=0;" parent="1" source="vRgjC-KuwLONajDQIYyj-8" target="vRgjC-KuwLONajDQIYyj-10" edge="1">
          <mxGeometry relative="1" as="geometry">
            <mxPoint x="190" y="330" as="sourcePoint" />
            <mxPoint x="240" y="330" as="targetPoint" />
            <Array as="points">
              <mxPoint x="110" y="200" />
            </Array>
          </mxGeometry>
        </mxCell>
        <mxCell id="vRgjC-KuwLONajDQIYyj-15" value="Tweet" style="whiteSpace=wrap;html=1;align=center;" parent="1" vertex="1">
          <mxGeometry x="60" y="560" width="100" height="40" as="geometry" />
        </mxCell>
        <mxCell id="vRgjC-KuwLONajDQIYyj-16" value="ID" style="ellipse;whiteSpace=wrap;html=1;align=center;fontStyle=4;" parent="1" vertex="1">
          <mxGeometry x="60" y="680" width="100" height="40" as="geometry" />
        </mxCell>
        <mxCell id="vRgjC-KuwLONajDQIYyj-17" value="texto" style="ellipse;whiteSpace=wrap;html=1;align=center;" parent="1" vertex="1">
          <mxGeometry x="180" y="680" width="100" height="40" as="geometry" />
        </mxCell>
        <mxCell id="vRgjC-KuwLONajDQIYyj-18" value="fecha_creacion" style="ellipse;whiteSpace=wrap;html=1;align=center;" parent="1" vertex="1">
          <mxGeometry x="-60" y="680" width="100" height="40" as="geometry" />
        </mxCell>
        <mxCell id="vRgjC-KuwLONajDQIYyj-19" value="Crear" style="shape=rhombus;perimeter=rhombusPerimeter;whiteSpace=wrap;html=1;align=center;" parent="1" vertex="1">
          <mxGeometry x="50" y="420" width="120" height="60" as="geometry" />
        </mxCell>
        <mxCell id="vRgjC-KuwLONajDQIYyj-20" value="" style="endArrow=none;html=1;rounded=0;exitX=0.5;exitY=0;exitDx=0;exitDy=0;entryX=0.5;entryY=1.067;entryDx=0;entryDy=0;entryPerimeter=0;" parent="1" source="vRgjC-KuwLONajDQIYyj-15" target="vRgjC-KuwLONajDQIYyj-21" edge="1">
          <mxGeometry relative="1" as="geometry">
            <mxPoint x="260" y="570" as="sourcePoint" />
            <mxPoint x="420" y="570" as="targetPoint" />
          </mxGeometry>
        </mxCell>
        <mxCell id="vRgjC-KuwLONajDQIYyj-21" value="0, N" style="text;strokeColor=none;fillColor=none;spacingLeft=4;spacingRight=4;overflow=hidden;rotatable=0;points=[[0,0.5],[1,0.5]];portConstraint=eastwest;fontSize=12;whiteSpace=wrap;html=1;" parent="1" vertex="1">
          <mxGeometry x="90" y="510" width="40" height="30" as="geometry" />
        </mxCell>
        <mxCell id="vRgjC-KuwLONajDQIYyj-22" value="1, 1" style="text;strokeColor=none;fillColor=none;spacingLeft=4;spacingRight=4;overflow=hidden;rotatable=0;points=[[0,0.5],[1,0.5]];portConstraint=eastwest;fontSize=12;whiteSpace=wrap;html=1;" parent="1" vertex="1">
          <mxGeometry x="90" y="340" width="40" height="30" as="geometry" />
        </mxCell>
        <mxCell id="vRgjC-KuwLONajDQIYyj-23" value="" style="endArrow=none;html=1;rounded=0;exitX=0.5;exitY=-0.067;exitDx=0;exitDy=0;entryX=0.5;entryY=1;entryDx=0;entryDy=0;exitPerimeter=0;" parent="1" source="vRgjC-KuwLONajDQIYyj-21" target="vRgjC-KuwLONajDQIYyj-19" edge="1">
          <mxGeometry relative="1" as="geometry">
            <mxPoint x="120" y="570" as="sourcePoint" />
            <mxPoint x="120" y="552" as="targetPoint" />
          </mxGeometry>
        </mxCell>
        <mxCell id="vRgjC-KuwLONajDQIYyj-24" value="" style="endArrow=none;html=1;rounded=0;exitX=0.5;exitY=0;exitDx=0;exitDy=0;entryX=0.5;entryY=1.1;entryDx=0;entryDy=0;entryPerimeter=0;" parent="1" source="vRgjC-KuwLONajDQIYyj-19" target="vRgjC-KuwLONajDQIYyj-22" edge="1">
          <mxGeometry relative="1" as="geometry">
            <mxPoint x="260" y="570" as="sourcePoint" />
            <mxPoint x="420" y="570" as="targetPoint" />
          </mxGeometry>
        </mxCell>
        <mxCell id="vRgjC-KuwLONajDQIYyj-25" value="" style="endArrow=none;html=1;rounded=0;exitX=0.5;exitY=0.033;exitDx=0;exitDy=0;entryX=0.5;entryY=1;entryDx=0;entryDy=0;exitPerimeter=0;" parent="1" source="vRgjC-KuwLONajDQIYyj-22" target="vRgjC-KuwLONajDQIYyj-1" edge="1">
          <mxGeometry relative="1" as="geometry">
            <mxPoint x="120" y="430" as="sourcePoint" />
            <mxPoint x="120" y="383" as="targetPoint" />
          </mxGeometry>
        </mxCell>
        <mxCell id="vRgjC-KuwLONajDQIYyj-26" value="Compartir" style="shape=rhombus;perimeter=rhombusPerimeter;whiteSpace=wrap;html=1;align=center;" parent="1" vertex="1">
          <mxGeometry x="-110" y="420" width="120" height="60" as="geometry" />
        </mxCell>
        <mxCell id="vRgjC-KuwLONajDQIYyj-27" value="Num_like" style="ellipse;whiteSpace=wrap;html=1;align=center;" parent="1" vertex="1">
          <mxGeometry x="-90" y="620" width="100" height="40" as="geometry" />
        </mxCell>
        <mxCell id="vRgjC-KuwLONajDQIYyj-28" value="0, N" style="text;strokeColor=none;fillColor=none;spacingLeft=4;spacingRight=4;overflow=hidden;rotatable=0;points=[[0,0.5],[1,0.5]];portConstraint=eastwest;fontSize=12;whiteSpace=wrap;html=1;" parent="1" vertex="1">
          <mxGeometry x="-70" y="340" width="40" height="30" as="geometry" />
        </mxCell>
        <mxCell id="vRgjC-KuwLONajDQIYyj-29" value="0, N" style="text;strokeColor=none;fillColor=none;spacingLeft=4;spacingRight=4;overflow=hidden;rotatable=0;points=[[0,0.5],[1,0.5]];portConstraint=eastwest;fontSize=12;whiteSpace=wrap;html=1;" parent="1" vertex="1">
          <mxGeometry x="-70" y="510" width="40" height="30" as="geometry" />
        </mxCell>
        <mxCell id="vRgjC-KuwLONajDQIYyj-30" value="" style="endArrow=none;html=1;rounded=0;exitX=1;exitY=0.5;exitDx=0;exitDy=0;entryX=0.19;entryY=1.075;entryDx=0;entryDy=0;entryPerimeter=0;" parent="1" source="vRgjC-KuwLONajDQIYyj-28" target="vRgjC-KuwLONajDQIYyj-1" edge="1">
          <mxGeometry relative="1" as="geometry">
            <mxPoint x="-40" y="570" as="sourcePoint" />
            <mxPoint x="120" y="570" as="targetPoint" />
            <Array as="points">
              <mxPoint x="80" y="355" />
            </Array>
          </mxGeometry>
        </mxCell>
        <mxCell id="vRgjC-KuwLONajDQIYyj-31" value="" style="endArrow=none;html=1;rounded=0;exitX=0.5;exitY=0;exitDx=0;exitDy=0;entryX=0.5;entryY=1.1;entryDx=0;entryDy=0;entryPerimeter=0;" parent="1" source="vRgjC-KuwLONajDQIYyj-26" target="vRgjC-KuwLONajDQIYyj-28" edge="1">
          <mxGeometry relative="1" as="geometry">
            <mxPoint x="-40" y="570" as="sourcePoint" />
            <mxPoint x="120" y="570" as="targetPoint" />
          </mxGeometry>
        </mxCell>
        <mxCell id="vRgjC-KuwLONajDQIYyj-32" value="" style="endArrow=none;html=1;rounded=0;exitX=0.5;exitY=-0.167;exitDx=0;exitDy=0;exitPerimeter=0;entryX=0.5;entryY=1;entryDx=0;entryDy=0;" parent="1" source="vRgjC-KuwLONajDQIYyj-29" target="vRgjC-KuwLONajDQIYyj-26" edge="1">
          <mxGeometry relative="1" as="geometry">
            <mxPoint x="-40" y="430" as="sourcePoint" />
            <mxPoint x="-80" y="500" as="targetPoint" />
          </mxGeometry>
        </mxCell>
        <mxCell id="vRgjC-KuwLONajDQIYyj-33" value="" style="endArrow=none;html=1;rounded=0;exitX=0;exitY=0;exitDx=0;exitDy=0;entryX=1;entryY=0.5;entryDx=0;entryDy=0;" parent="1" source="vRgjC-KuwLONajDQIYyj-15" target="vRgjC-KuwLONajDQIYyj-29" edge="1">
          <mxGeometry relative="1" as="geometry">
            <mxPoint x="-30" y="440" as="sourcePoint" />
            <mxPoint x="-30" y="393" as="targetPoint" />
            <Array as="points">
              <mxPoint x="60" y="525" />
            </Array>
          </mxGeometry>
        </mxCell>
        <mxCell id="vRgjC-KuwLONajDQIYyj-34" value="Dar_like" style="shape=rhombus;perimeter=rhombusPerimeter;whiteSpace=wrap;html=1;align=center;" parent="1" vertex="1">
          <mxGeometry x="210" y="410" width="120" height="60" as="geometry" />
        </mxCell>
        <mxCell id="vRgjC-KuwLONajDQIYyj-35" value="0, N" style="text;strokeColor=none;fillColor=none;spacingLeft=4;spacingRight=4;overflow=hidden;rotatable=0;points=[[0,0.5],[1,0.5]];portConstraint=eastwest;fontSize=12;whiteSpace=wrap;html=1;" parent="1" vertex="1">
          <mxGeometry x="250" y="340" width="40" height="30" as="geometry" />
        </mxCell>
        <mxCell id="vRgjC-KuwLONajDQIYyj-36" value="0, N" style="text;strokeColor=none;fillColor=none;spacingLeft=4;spacingRight=4;overflow=hidden;rotatable=0;points=[[0,0.5],[1,0.5]];portConstraint=eastwest;fontSize=12;whiteSpace=wrap;html=1;" parent="1" vertex="1">
          <mxGeometry x="250" y="510" width="40" height="30" as="geometry" />
        </mxCell>
        <mxCell id="vRgjC-KuwLONajDQIYyj-37" value="" style="endArrow=none;html=1;rounded=0;exitX=1;exitY=0;exitDx=0;exitDy=0;entryX=0;entryY=0.5;entryDx=0;entryDy=0;" parent="1" source="vRgjC-KuwLONajDQIYyj-15" target="vRgjC-KuwLONajDQIYyj-36" edge="1">
          <mxGeometry relative="1" as="geometry">
            <mxPoint x="-40" y="570" as="sourcePoint" />
            <mxPoint x="120" y="570" as="targetPoint" />
            <Array as="points">
              <mxPoint x="160" y="525" />
            </Array>
          </mxGeometry>
        </mxCell>
        <mxCell id="vRgjC-KuwLONajDQIYyj-38" value="" style="endArrow=none;html=1;rounded=0;exitX=0.5;exitY=-0.033;exitDx=0;exitDy=0;exitPerimeter=0;entryX=0.5;entryY=1;entryDx=0;entryDy=0;" parent="1" source="vRgjC-KuwLONajDQIYyj-36" target="vRgjC-KuwLONajDQIYyj-34" edge="1">
          <mxGeometry relative="1" as="geometry">
            <mxPoint x="-40" y="570" as="sourcePoint" />
            <mxPoint x="120" y="570" as="targetPoint" />
          </mxGeometry>
        </mxCell>
        <mxCell id="vRgjC-KuwLONajDQIYyj-39" value="" style="endArrow=none;html=1;rounded=0;exitX=0.5;exitY=1.033;exitDx=0;exitDy=0;exitPerimeter=0;entryX=0.5;entryY=0;entryDx=0;entryDy=0;" parent="1" source="vRgjC-KuwLONajDQIYyj-35" target="vRgjC-KuwLONajDQIYyj-34" edge="1">
          <mxGeometry relative="1" as="geometry">
            <mxPoint x="280" y="519" as="sourcePoint" />
            <mxPoint x="280" y="490" as="targetPoint" />
          </mxGeometry>
        </mxCell>
        <mxCell id="vRgjC-KuwLONajDQIYyj-40" value="" style="endArrow=none;html=1;rounded=0;exitX=0;exitY=0.5;exitDx=0;exitDy=0;entryX=0.75;entryY=1;entryDx=0;entryDy=0;" parent="1" source="vRgjC-KuwLONajDQIYyj-35" target="vRgjC-KuwLONajDQIYyj-1" edge="1">
          <mxGeometry relative="1" as="geometry">
            <mxPoint x="290" y="529" as="sourcePoint" />
            <mxPoint x="290" y="500" as="targetPoint" />
            <Array as="points">
              <mxPoint x="135" y="355" />
            </Array>
          </mxGeometry>
        </mxCell>
        <mxCell id="vRgjC-KuwLONajDQIYyj-41" value="Veces_compartido" style="ellipse;whiteSpace=wrap;html=1;align=center;" parent="1" vertex="1">
          <mxGeometry x="310" y="680" width="100" height="40" as="geometry" />
        </mxCell>
        <mxCell id="vRgjC-KuwLONajDQIYyj-42" value="Comentario" style="whiteSpace=wrap;html=1;align=center;" parent="1" vertex="1">
          <mxGeometry x="450" y="400" width="100" height="40" as="geometry" />
        </mxCell>
        <mxCell id="vRgjC-KuwLONajDQIYyj-43" value="Contenido" style="ellipse;whiteSpace=wrap;html=1;align=center;" parent="1" vertex="1">
          <mxGeometry x="610" y="320" width="100" height="40" as="geometry" />
        </mxCell>
        <mxCell id="vRgjC-KuwLONajDQIYyj-44" value="ID" style="ellipse;whiteSpace=wrap;html=1;align=center;fontStyle=4;" parent="1" vertex="1">
          <mxGeometry x="610" y="400" width="100" height="40" as="geometry" />
        </mxCell>
        <mxCell id="vRgjC-KuwLONajDQIYyj-45" value="fecha_creacion" style="ellipse;whiteSpace=wrap;html=1;align=center;" parent="1" vertex="1">
          <mxGeometry x="610" y="480" width="100" height="40" as="geometry" />
        </mxCell>
        <mxCell id="vRgjC-KuwLONajDQIYyj-46" value="Escribir" style="shape=rhombus;perimeter=rhombusPerimeter;whiteSpace=wrap;html=1;align=center;" parent="1" vertex="1">
          <mxGeometry x="330" y="270" width="120" height="60" as="geometry" />
        </mxCell>
        <mxCell id="vRgjC-KuwLONajDQIYyj-47" value="" style="endArrow=none;html=1;rounded=0;exitX=1;exitY=0.5;exitDx=0;exitDy=0;" parent="1" source="vRgjC-KuwLONajDQIYyj-1" target="vRgjC-KuwLONajDQIYyj-48" edge="1">
          <mxGeometry relative="1" as="geometry">
            <mxPoint x="-40" y="470" as="sourcePoint" />
            <mxPoint x="120" y="470" as="targetPoint" />
          </mxGeometry>
        </mxCell>
        <mxCell id="vRgjC-KuwLONajDQIYyj-48" value="1, 1" style="text;strokeColor=none;fillColor=none;spacingLeft=4;spacingRight=4;overflow=hidden;rotatable=0;points=[[0,0.5],[1,0.5]];portConstraint=eastwest;fontSize=12;whiteSpace=wrap;html=1;" parent="1" vertex="1">
          <mxGeometry x="210" y="285" width="40" height="30" as="geometry" />
        </mxCell>
        <mxCell id="vRgjC-KuwLONajDQIYyj-49" value="" style="endArrow=none;html=1;rounded=0;exitX=1;exitY=0.5;exitDx=0;exitDy=0;entryX=0;entryY=0.5;entryDx=0;entryDy=0;" parent="1" source="vRgjC-KuwLONajDQIYyj-48" target="vRgjC-KuwLONajDQIYyj-46" edge="1">
          <mxGeometry relative="1" as="geometry">
            <mxPoint x="-40" y="470" as="sourcePoint" />
            <mxPoint x="120" y="470" as="targetPoint" />
          </mxGeometry>
        </mxCell>
        <mxCell id="vRgjC-KuwLONajDQIYyj-50" value="0 N" style="text;strokeColor=none;fillColor=none;spacingLeft=4;spacingRight=4;overflow=hidden;rotatable=0;points=[[0,0.5],[1,0.5]];portConstraint=eastwest;fontSize=12;whiteSpace=wrap;html=1;" parent="1" vertex="1">
          <mxGeometry x="480" y="350" width="40" height="30" as="geometry" />
        </mxCell>
        <mxCell id="vRgjC-KuwLONajDQIYyj-51" value="" style="endArrow=none;html=1;rounded=0;exitX=1;exitY=0.5;exitDx=0;exitDy=0;entryX=0.5;entryY=-0.067;entryDx=0;entryDy=0;entryPerimeter=0;" parent="1" source="vRgjC-KuwLONajDQIYyj-46" target="vRgjC-KuwLONajDQIYyj-50" edge="1">
          <mxGeometry relative="1" as="geometry">
            <mxPoint x="-40" y="470" as="sourcePoint" />
            <mxPoint x="120" y="470" as="targetPoint" />
            <Array as="points">
              <mxPoint x="500" y="300" />
            </Array>
          </mxGeometry>
        </mxCell>
        <mxCell id="vRgjC-KuwLONajDQIYyj-52" value="" style="endArrow=none;html=1;rounded=0;entryX=0.5;entryY=1.1;entryDx=0;entryDy=0;entryPerimeter=0;exitX=0.5;exitY=0;exitDx=0;exitDy=0;" parent="1" source="vRgjC-KuwLONajDQIYyj-42" target="vRgjC-KuwLONajDQIYyj-50" edge="1">
          <mxGeometry relative="1" as="geometry">
            <mxPoint x="-40" y="470" as="sourcePoint" />
            <mxPoint x="120" y="470" as="targetPoint" />
          </mxGeometry>
        </mxCell>
        <mxCell id="vRgjC-KuwLONajDQIYyj-53" value="1, 1" style="text;strokeColor=none;fillColor=none;spacingLeft=4;spacingRight=4;overflow=hidden;rotatable=0;points=[[0,0.5],[1,0.5]];portConstraint=eastwest;fontSize=12;whiteSpace=wrap;html=1;" parent="1" vertex="1">
          <mxGeometry x="200" y="565" width="40" height="30" as="geometry" />
        </mxCell>
        <mxCell id="vRgjC-KuwLONajDQIYyj-54" value="0, N" style="text;strokeColor=none;fillColor=none;spacingLeft=4;spacingRight=4;overflow=hidden;rotatable=0;points=[[0,0.5],[1,0.5]];portConstraint=eastwest;fontSize=12;whiteSpace=wrap;html=1;" parent="1" vertex="1">
          <mxGeometry x="480" y="460" width="40" height="30" as="geometry" />
        </mxCell>
        <mxCell id="vRgjC-KuwLONajDQIYyj-55" value="Vincular" style="shape=rhombus;perimeter=rhombusPerimeter;whiteSpace=wrap;html=1;align=center;" parent="1" vertex="1">
          <mxGeometry x="330" y="550" width="120" height="60" as="geometry" />
        </mxCell>
        <mxCell id="vRgjC-KuwLONajDQIYyj-56" value="" style="endArrow=none;html=1;rounded=0;exitX=1;exitY=0.5;exitDx=0;exitDy=0;entryX=0;entryY=0.5;entryDx=0;entryDy=0;" parent="1" source="vRgjC-KuwLONajDQIYyj-15" target="vRgjC-KuwLONajDQIYyj-53" edge="1">
          <mxGeometry relative="1" as="geometry">
            <mxPoint x="-40" y="470" as="sourcePoint" />
            <mxPoint x="120" y="470" as="targetPoint" />
          </mxGeometry>
        </mxCell>
        <mxCell id="vRgjC-KuwLONajDQIYyj-57" value="" style="endArrow=none;html=1;rounded=0;exitX=1;exitY=0.5;exitDx=0;exitDy=0;entryX=0;entryY=0.5;entryDx=0;entryDy=0;" parent="1" source="vRgjC-KuwLONajDQIYyj-53" target="vRgjC-KuwLONajDQIYyj-55" edge="1">
          <mxGeometry relative="1" as="geometry">
            <mxPoint x="-40" y="470" as="sourcePoint" />
            <mxPoint x="120" y="470" as="targetPoint" />
          </mxGeometry>
        </mxCell>
        <mxCell id="vRgjC-KuwLONajDQIYyj-58" value="" style="endArrow=none;html=1;rounded=0;exitX=1;exitY=0.5;exitDx=0;exitDy=0;entryX=0.5;entryY=1.133;entryDx=0;entryDy=0;entryPerimeter=0;" parent="1" source="vRgjC-KuwLONajDQIYyj-55" target="vRgjC-KuwLONajDQIYyj-54" edge="1">
          <mxGeometry relative="1" as="geometry">
            <mxPoint x="-40" y="470" as="sourcePoint" />
            <mxPoint x="120" y="470" as="targetPoint" />
            <Array as="points">
              <mxPoint x="500" y="580" />
            </Array>
          </mxGeometry>
        </mxCell>
        <mxCell id="vRgjC-KuwLONajDQIYyj-59" value="" style="endArrow=none;html=1;rounded=0;exitX=0.5;exitY=0;exitDx=0;exitDy=0;exitPerimeter=0;entryX=0.5;entryY=1;entryDx=0;entryDy=0;" parent="1" source="vRgjC-KuwLONajDQIYyj-54" target="vRgjC-KuwLONajDQIYyj-42" edge="1">
          <mxGeometry relative="1" as="geometry">
            <mxPoint x="-40" y="470" as="sourcePoint" />
            <mxPoint x="120" y="470" as="targetPoint" />
          </mxGeometry>
        </mxCell>
        <mxCell id="vRgjC-KuwLONajDQIYyj-60" value="Hashtag" style="whiteSpace=wrap;html=1;align=center;" parent="1" vertex="1">
          <mxGeometry x="-330" y="400" width="100" height="40" as="geometry" />
        </mxCell>
        <mxCell id="vRgjC-KuwLONajDQIYyj-61" value="ID" style="ellipse;whiteSpace=wrap;html=1;align=center;fontStyle=4;" parent="1" vertex="1">
          <mxGeometry x="-490" y="400" width="100" height="40" as="geometry" />
        </mxCell>
        <mxCell id="vRgjC-KuwLONajDQIYyj-62" value="Nombre" style="ellipse;whiteSpace=wrap;html=1;align=center;" parent="1" vertex="1">
          <mxGeometry x="-490" y="480" width="100" height="40" as="geometry" />
        </mxCell>
        <mxCell id="vRgjC-KuwLONajDQIYyj-63" value="Asociar" style="shape=rhombus;perimeter=rhombusPerimeter;whiteSpace=wrap;html=1;align=center;" parent="1" vertex="1">
          <mxGeometry x="-230" y="550" width="120" height="60" as="geometry" />
        </mxCell>
        <mxCell id="vRgjC-KuwLONajDQIYyj-64" value="0, N" style="text;strokeColor=none;fillColor=none;spacingLeft=4;spacingRight=4;overflow=hidden;rotatable=0;points=[[0,0.5],[1,0.5]];portConstraint=eastwest;fontSize=12;whiteSpace=wrap;html=1;" parent="1" vertex="1">
          <mxGeometry x="-20" y="565" width="40" height="30" as="geometry" />
        </mxCell>
        <mxCell id="vRgjC-KuwLONajDQIYyj-65" value="0, N" style="text;strokeColor=none;fillColor=none;spacingLeft=4;spacingRight=4;overflow=hidden;rotatable=0;points=[[0,0.5],[1,0.5]];portConstraint=eastwest;fontSize=12;whiteSpace=wrap;html=1;" parent="1" vertex="1">
          <mxGeometry x="-300" y="460" width="40" height="30" as="geometry" />
        </mxCell>
        <mxCell id="vRgjC-KuwLONajDQIYyj-66" value="" style="endArrow=none;html=1;rounded=0;exitX=0.5;exitY=-0.033;exitDx=0;exitDy=0;exitPerimeter=0;entryX=0.5;entryY=1;entryDx=0;entryDy=0;" parent="1" source="vRgjC-KuwLONajDQIYyj-65" target="vRgjC-KuwLONajDQIYyj-60" edge="1">
          <mxGeometry relative="1" as="geometry">
            <mxPoint x="-40" y="370" as="sourcePoint" />
            <mxPoint x="120" y="370" as="targetPoint" />
          </mxGeometry>
        </mxCell>
        <mxCell id="vRgjC-KuwLONajDQIYyj-67" value="" style="endArrow=none;html=1;rounded=0;exitX=0;exitY=0.5;exitDx=0;exitDy=0;entryX=0.5;entryY=1.333;entryDx=0;entryDy=0;entryPerimeter=0;" parent="1" source="vRgjC-KuwLONajDQIYyj-63" target="vRgjC-KuwLONajDQIYyj-65" edge="1">
          <mxGeometry relative="1" as="geometry">
            <mxPoint x="-40" y="370" as="sourcePoint" />
            <mxPoint x="120" y="370" as="targetPoint" />
            <Array as="points">
              <mxPoint x="-280" y="580" />
            </Array>
          </mxGeometry>
        </mxCell>
        <mxCell id="vRgjC-KuwLONajDQIYyj-68" value="" style="endArrow=none;html=1;rounded=0;exitX=1;exitY=0.5;exitDx=0;exitDy=0;entryX=0;entryY=0.5;entryDx=0;entryDy=0;" parent="1" source="vRgjC-KuwLONajDQIYyj-63" target="vRgjC-KuwLONajDQIYyj-64" edge="1">
          <mxGeometry relative="1" as="geometry">
            <mxPoint x="-30" y="380" as="sourcePoint" />
            <mxPoint x="130" y="380" as="targetPoint" />
          </mxGeometry>
        </mxCell>
        <mxCell id="vRgjC-KuwLONajDQIYyj-69" value="" style="endArrow=none;html=1;rounded=0;exitX=0;exitY=0.5;exitDx=0;exitDy=0;entryX=1;entryY=0.5;entryDx=0;entryDy=0;" parent="1" source="vRgjC-KuwLONajDQIYyj-15" target="vRgjC-KuwLONajDQIYyj-64" edge="1">
          <mxGeometry relative="1" as="geometry">
            <mxPoint x="-100" y="590" as="sourcePoint" />
            <mxPoint x="-10" y="590" as="targetPoint" />
          </mxGeometry>
        </mxCell>
        <mxCell id="vRgjC-KuwLONajDQIYyj-70" value="1, 1" style="text;strokeColor=none;fillColor=none;spacingLeft=4;spacingRight=4;overflow=hidden;rotatable=0;points=[[0,0.5],[1,0.5]];portConstraint=eastwest;fontSize=12;whiteSpace=wrap;html=1;" parent="1" vertex="1">
          <mxGeometry x="-10" y="285" width="40" height="30" as="geometry" />
        </mxCell>
        <mxCell id="vRgjC-KuwLONajDQIYyj-71" value="0, N" style="text;strokeColor=none;fillColor=none;spacingLeft=4;spacingRight=4;overflow=hidden;rotatable=0;points=[[0,0.5],[1,0.5]];portConstraint=eastwest;fontSize=12;whiteSpace=wrap;html=1;" parent="1" vertex="1">
          <mxGeometry x="-300" y="340" width="40" height="30" as="geometry" />
        </mxCell>
        <mxCell id="vRgjC-KuwLONajDQIYyj-72" value="" style="endArrow=none;html=1;rounded=0;exitX=0.5;exitY=0;exitDx=0;exitDy=0;entryX=0.5;entryY=1.1;entryDx=0;entryDy=0;entryPerimeter=0;" parent="1" source="vRgjC-KuwLONajDQIYyj-60" target="vRgjC-KuwLONajDQIYyj-71" edge="1">
          <mxGeometry relative="1" as="geometry">
            <mxPoint x="-40" y="370" as="sourcePoint" />
            <mxPoint x="120" y="370" as="targetPoint" />
          </mxGeometry>
        </mxCell>
        <mxCell id="vRgjC-KuwLONajDQIYyj-73" value="Generar" style="shape=rhombus;perimeter=rhombusPerimeter;whiteSpace=wrap;html=1;align=center;" parent="1" vertex="1">
          <mxGeometry x="-230" y="270" width="120" height="60" as="geometry" />
        </mxCell>
        <mxCell id="vRgjC-KuwLONajDQIYyj-74" value="" style="endArrow=none;html=1;rounded=0;exitX=0.5;exitY=0;exitDx=0;exitDy=0;exitPerimeter=0;entryX=0;entryY=0.5;entryDx=0;entryDy=0;" parent="1" source="vRgjC-KuwLONajDQIYyj-71" target="vRgjC-KuwLONajDQIYyj-73" edge="1">
          <mxGeometry relative="1" as="geometry">
            <mxPoint x="-40" y="370" as="sourcePoint" />
            <mxPoint x="120" y="370" as="targetPoint" />
            <Array as="points">
              <mxPoint x="-280" y="300" />
            </Array>
          </mxGeometry>
        </mxCell>
        <mxCell id="vRgjC-KuwLONajDQIYyj-75" value="" style="endArrow=none;html=1;rounded=0;exitX=1;exitY=0.5;exitDx=0;exitDy=0;entryX=0;entryY=0.5;entryDx=0;entryDy=0;" parent="1" source="vRgjC-KuwLONajDQIYyj-73" target="vRgjC-KuwLONajDQIYyj-70" edge="1">
          <mxGeometry relative="1" as="geometry">
            <mxPoint x="-40" y="370" as="sourcePoint" />
            <mxPoint x="120" y="370" as="targetPoint" />
          </mxGeometry>
        </mxCell>
        <mxCell id="vRgjC-KuwLONajDQIYyj-76" value="" style="endArrow=none;html=1;rounded=0;exitX=0;exitY=0.5;exitDx=0;exitDy=0;entryX=1;entryY=0.5;entryDx=0;entryDy=0;" parent="1" source="vRgjC-KuwLONajDQIYyj-1" target="vRgjC-KuwLONajDQIYyj-70" edge="1">
          <mxGeometry relative="1" as="geometry">
            <mxPoint x="-100" y="310" as="sourcePoint" />
            <mxPoint y="310" as="targetPoint" />
          </mxGeometry>
        </mxCell>
        <mxCell id="vRgjC-KuwLONajDQIYyj-77" value="" style="endArrow=none;html=1;rounded=0;exitX=0.5;exitY=1;exitDx=0;exitDy=0;entryX=0;entryY=0;entryDx=0;entryDy=0;" parent="1" source="vRgjC-KuwLONajDQIYyj-2" target="vRgjC-KuwLONajDQIYyj-1" edge="1">
          <mxGeometry relative="1" as="geometry">
            <mxPoint x="50" y="500" as="sourcePoint" />
            <mxPoint x="50" y="180" as="targetPoint" />
            <Array as="points">
              <mxPoint x="-40" y="180" />
              <mxPoint x="60" y="180" />
            </Array>
          </mxGeometry>
        </mxCell>
        <mxCell id="vRgjC-KuwLONajDQIYyj-78" value="" style="endArrow=none;html=1;rounded=0;exitX=0.5;exitY=0;exitDx=0;exitDy=0;entryX=0;entryY=0;entryDx=0;entryDy=0;" parent="1" source="vRgjC-KuwLONajDQIYyj-3" edge="1" target="vRgjC-KuwLONajDQIYyj-1">
          <mxGeometry relative="1" as="geometry">
            <mxPoint x="50" y="500" as="sourcePoint" />
            <mxPoint x="60" y="220" as="targetPoint" />
            <Array as="points">
              <mxPoint x="-40" y="180" />
              <mxPoint x="60" y="180" />
            </Array>
          </mxGeometry>
        </mxCell>
        <mxCell id="vRgjC-KuwLONajDQIYyj-79" value="" style="endArrow=none;html=1;rounded=0;exitX=0.5;exitY=1;exitDx=0;exitDy=0;entryX=0;entryY=0;entryDx=0;entryDy=0;" parent="1" source="vRgjC-KuwLONajDQIYyj-6" target="vRgjC-KuwLONajDQIYyj-1" edge="1">
          <mxGeometry relative="1" as="geometry">
            <mxPoint x="50" y="500" as="sourcePoint" />
            <mxPoint x="210" y="500" as="targetPoint" />
            <Array as="points">
              <mxPoint x="-160" y="180" />
              <mxPoint x="60" y="180" />
            </Array>
          </mxGeometry>
        </mxCell>
        <mxCell id="vRgjC-KuwLONajDQIYyj-80" value="" style="endArrow=none;html=1;rounded=0;exitX=0.5;exitY=1;exitDx=0;exitDy=0;entryX=0;entryY=0;entryDx=0;entryDy=0;" parent="1" source="vRgjC-KuwLONajDQIYyj-7" edge="1" target="vRgjC-KuwLONajDQIYyj-1">
          <mxGeometry relative="1" as="geometry">
            <mxPoint x="-100" y="150" as="sourcePoint" />
            <mxPoint x="-210" y="140" as="targetPoint" />
            <Array as="points">
              <mxPoint x="-280" y="180" />
              <mxPoint x="60" y="180" />
            </Array>
          </mxGeometry>
        </mxCell>
        <mxCell id="vRgjC-KuwLONajDQIYyj-81" value="" style="endArrow=none;html=1;rounded=0;exitX=0.5;exitY=0;exitDx=0;exitDy=0;entryX=0;entryY=0;entryDx=0;entryDy=0;" parent="1" source="vRgjC-KuwLONajDQIYyj-5" target="vRgjC-KuwLONajDQIYyj-1" edge="1">
          <mxGeometry relative="1" as="geometry">
            <mxPoint x="-220" y="150" as="sourcePoint" />
            <mxPoint x="-200" y="150" as="targetPoint" />
            <Array as="points">
              <mxPoint x="-280" y="180" />
              <mxPoint x="60" y="180" />
            </Array>
          </mxGeometry>
        </mxCell>
        <mxCell id="vRgjC-KuwLONajDQIYyj-82" value="" style="endArrow=none;html=1;rounded=0;exitX=0.5;exitY=0;exitDx=0;exitDy=0;" parent="1" source="vRgjC-KuwLONajDQIYyj-4" edge="1">
          <mxGeometry relative="1" as="geometry">
            <mxPoint x="-230" y="230" as="sourcePoint" />
            <mxPoint x="60" y="280" as="targetPoint" />
            <Array as="points">
              <mxPoint x="-160" y="180" />
              <mxPoint x="60" y="180" />
            </Array>
          </mxGeometry>
        </mxCell>
        <mxCell id="vRgjC-KuwLONajDQIYyj-83" value="" style="endArrow=none;html=1;rounded=0;exitX=1;exitY=0.5;exitDx=0;exitDy=0;entryX=0;entryY=0.5;entryDx=0;entryDy=0;" parent="1" source="vRgjC-KuwLONajDQIYyj-61" target="vRgjC-KuwLONajDQIYyj-60" edge="1">
          <mxGeometry relative="1" as="geometry">
            <mxPoint x="50" y="500" as="sourcePoint" />
            <mxPoint x="210" y="500" as="targetPoint" />
          </mxGeometry>
        </mxCell>
        <mxCell id="vRgjC-KuwLONajDQIYyj-84" value="" style="endArrow=none;html=1;rounded=0;exitX=1;exitY=0.5;exitDx=0;exitDy=0;entryX=0;entryY=1;entryDx=0;entryDy=0;" parent="1" source="vRgjC-KuwLONajDQIYyj-62" target="vRgjC-KuwLONajDQIYyj-60" edge="1">
          <mxGeometry relative="1" as="geometry">
            <mxPoint x="-380" y="430" as="sourcePoint" />
            <mxPoint x="-330" y="480" as="targetPoint" />
          </mxGeometry>
        </mxCell>
        <mxCell id="vRgjC-KuwLONajDQIYyj-85" value="" style="endArrow=none;html=1;rounded=0;exitX=1;exitY=0;exitDx=0;exitDy=0;entryX=0;entryY=1;entryDx=0;entryDy=0;" parent="1" source="vRgjC-KuwLONajDQIYyj-27" target="vRgjC-KuwLONajDQIYyj-15" edge="1">
          <mxGeometry relative="1" as="geometry">
            <mxPoint x="50" y="500" as="sourcePoint" />
            <mxPoint x="210" y="500" as="targetPoint" />
          </mxGeometry>
        </mxCell>
        <mxCell id="vRgjC-KuwLONajDQIYyj-86" value="" style="endArrow=none;html=1;rounded=0;exitX=1;exitY=0;exitDx=0;exitDy=0;entryX=0.25;entryY=1;entryDx=0;entryDy=0;" parent="1" source="vRgjC-KuwLONajDQIYyj-18" target="vRgjC-KuwLONajDQIYyj-15" edge="1">
          <mxGeometry relative="1" as="geometry">
            <mxPoint x="5" y="636" as="sourcePoint" />
            <mxPoint x="70" y="610" as="targetPoint" />
          </mxGeometry>
        </mxCell>
        <mxCell id="vRgjC-KuwLONajDQIYyj-87" value="" style="endArrow=none;html=1;rounded=0;exitX=0.5;exitY=0;exitDx=0;exitDy=0;entryX=0.5;entryY=1;entryDx=0;entryDy=0;" parent="1" source="vRgjC-KuwLONajDQIYyj-16" target="vRgjC-KuwLONajDQIYyj-15" edge="1">
          <mxGeometry relative="1" as="geometry">
            <mxPoint x="35" y="696" as="sourcePoint" />
            <mxPoint x="95" y="610" as="targetPoint" />
          </mxGeometry>
        </mxCell>
        <mxCell id="vRgjC-KuwLONajDQIYyj-88" value="" style="endArrow=none;html=1;rounded=0;exitX=0;exitY=0;exitDx=0;exitDy=0;entryX=0.75;entryY=1;entryDx=0;entryDy=0;" parent="1" source="vRgjC-KuwLONajDQIYyj-17" target="vRgjC-KuwLONajDQIYyj-15" edge="1">
          <mxGeometry relative="1" as="geometry">
            <mxPoint x="45" y="706" as="sourcePoint" />
            <mxPoint x="105" y="620" as="targetPoint" />
          </mxGeometry>
        </mxCell>
        <mxCell id="vRgjC-KuwLONajDQIYyj-89" value="" style="endArrow=none;html=1;rounded=0;exitX=0;exitY=0.5;exitDx=0;exitDy=0;entryX=1;entryY=1;entryDx=0;entryDy=0;" parent="1" source="vRgjC-KuwLONajDQIYyj-41" target="vRgjC-KuwLONajDQIYyj-15" edge="1">
          <mxGeometry relative="1" as="geometry">
            <mxPoint x="55" y="716" as="sourcePoint" />
            <mxPoint x="115" y="630" as="targetPoint" />
          </mxGeometry>
        </mxCell>
        <mxCell id="vRgjC-KuwLONajDQIYyj-90" value="" style="endArrow=none;html=1;rounded=0;exitX=1;exitY=0;exitDx=0;exitDy=0;entryX=0;entryY=0.5;entryDx=0;entryDy=0;" parent="1" source="vRgjC-KuwLONajDQIYyj-42" target="vRgjC-KuwLONajDQIYyj-43" edge="1">
          <mxGeometry relative="1" as="geometry">
            <mxPoint x="65" y="726" as="sourcePoint" />
            <mxPoint x="125" y="640" as="targetPoint" />
          </mxGeometry>
        </mxCell>
        <mxCell id="vRgjC-KuwLONajDQIYyj-91" value="" style="endArrow=none;html=1;rounded=0;exitX=1;exitY=0.5;exitDx=0;exitDy=0;entryX=0;entryY=0.5;entryDx=0;entryDy=0;" parent="1" source="vRgjC-KuwLONajDQIYyj-42" target="vRgjC-KuwLONajDQIYyj-44" edge="1">
          <mxGeometry relative="1" as="geometry">
            <mxPoint x="560" y="410" as="sourcePoint" />
            <mxPoint x="620" y="350" as="targetPoint" />
          </mxGeometry>
        </mxCell>
        <mxCell id="vRgjC-KuwLONajDQIYyj-92" value="" style="endArrow=none;html=1;rounded=0;exitX=1;exitY=1;exitDx=0;exitDy=0;entryX=0;entryY=0.5;entryDx=0;entryDy=0;" parent="1" source="vRgjC-KuwLONajDQIYyj-42" target="vRgjC-KuwLONajDQIYyj-45" edge="1">
          <mxGeometry relative="1" as="geometry">
            <mxPoint x="570" y="420" as="sourcePoint" />
            <mxPoint x="630" y="360" as="targetPoint" />
          </mxGeometry>
        </mxCell>
        <mxCell id="CPWmmdeJDW9y51N6vrC7-1" value="&lt;b style=&quot;background-color: initial;&quot;&gt;Usuario&lt;/b&gt;&lt;span style=&quot;background-color: initial;&quot;&gt;(&lt;/span&gt;&lt;b style=&quot;background-color: initial;&quot;&gt;&lt;u&gt;nombreUsuario&lt;/u&gt;&lt;/b&gt;&lt;span style=&quot;background-color: initial;&quot;&gt;: &lt;/span&gt;&lt;span style=&quot;background-color: initial; color: rgb(80, 80, 80);&quot;&gt;varchar&lt;/span&gt;&lt;span style=&quot;background-color: initial;&quot;&gt;, &lt;/span&gt;&lt;span style=&quot;background-color: initial;&quot;&gt;nombre&lt;/span&gt;&lt;span style=&quot;background-color: initial;&quot;&gt;: &lt;/span&gt;&lt;span style=&quot;background-color: initial; color: rgb(80, 80, 80);&quot;&gt;varchar&lt;/span&gt;&lt;span style=&quot;background-color: initial;&quot;&gt;, &lt;/span&gt;&lt;span style=&quot;background-color: initial;&quot;&gt;password&lt;/span&gt;&lt;span style=&quot;background-color: initial;&quot;&gt;: &lt;/span&gt;&lt;span style=&quot;background-color: initial; color: rgb(80, 80, 80);&quot;&gt;varchar&lt;/span&gt;&lt;span style=&quot;background-color: initial;&quot;&gt;, &lt;/span&gt;&lt;span style=&quot;background-color: initial;&quot;&gt;email&lt;/span&gt;&lt;span style=&quot;background-color: initial;&quot;&gt;: &lt;/span&gt;&lt;span style=&quot;background-color: initial; color: rgb(80, 80, 80);&quot;&gt;varchar&lt;/span&gt;&lt;span style=&quot;background-color: initial;&quot;&gt;, &lt;/span&gt;&lt;span style=&quot;background-color: initial;&quot;&gt;fechaCreacion&lt;/span&gt;&lt;span style=&quot;background-color: initial;&quot;&gt;: &lt;/span&gt;&lt;span style=&quot;background-color: initial; color: rgb(80, 80, 80);&quot;&gt;date&lt;/span&gt;&lt;span style=&quot;background-color: initial;&quot;&gt;)&lt;/span&gt;&lt;p class=&quot;MsoNormal&quot;&gt;&lt;/p&gt;&lt;b style=&quot;background-color: initial;&quot;&gt;Seguir&lt;/b&gt;&lt;span style=&quot;background-color: initial;&quot;&gt;(&lt;/span&gt;&lt;b style=&quot;background-color: initial;&quot;&gt;&lt;u&gt;IDUsuario&lt;/u&gt;&lt;/b&gt;&lt;span style=&quot;background-color: initial;&quot;&gt;: &lt;/span&gt;&lt;b style=&quot;background-color: initial;&quot;&gt;[REF_Usuario nombreUsuario]&lt;/b&gt;&lt;span style=&quot;background-color: initial;&quot;&gt;,&amp;nbsp;&lt;/span&gt;&lt;b style=&quot;background-color: initial;&quot;&gt;&lt;u&gt;IDUsuarioSeguir&lt;/u&gt;&lt;/b&gt;&lt;span style=&quot;background-color: initial;&quot;&gt;: &lt;/span&gt;&lt;b style=&quot;background-color: initial;&quot;&gt;[REF_Usuario nombreUsuario]&lt;/b&gt;&lt;span style=&quot;background-color: initial;&quot;&gt;)&lt;/span&gt;&lt;span style=&quot;background-color: initial;&quot;&gt;&lt;br&gt;&lt;/span&gt;&lt;b style=&quot;background-color: initial;&quot;&gt;&lt;br&gt;Tweet&lt;/b&gt;&lt;span style=&quot;background-color: initial;&quot;&gt;(&lt;/span&gt;&lt;b style=&quot;background-color: initial;&quot;&gt;&lt;u&gt;ID&lt;/u&gt;&lt;/b&gt;&lt;span style=&quot;background-color: initial;&quot;&gt;: &lt;/span&gt;&lt;span style=&quot;background-color: initial; color: rgb(80, 80, 80);&quot;&gt;int&lt;/span&gt;&lt;span style=&quot;background-color: initial;&quot;&gt;,&amp;nbsp;&lt;/span&gt;&lt;span style=&quot;background-color: initial;&quot;&gt;texto: &lt;/span&gt;&lt;span style=&quot;background-color: initial; color: rgb(80, 80, 80);&quot;&gt;varchar&lt;/span&gt;&lt;span style=&quot;background-color: initial;&quot;&gt;, foto, &lt;/span&gt;&lt;span style=&quot;background-color: initial; color: rgb(80, 80, 80);&quot;&gt;varchar&lt;/span&gt;&lt;span style=&quot;background-color: initial;&quot;&gt;, vecesCompartido: &lt;/span&gt;&lt;span style=&quot;background-color: initial; color: rgb(80, 80, 80);&quot;&gt;int&lt;/span&gt;&lt;span style=&quot;background-color: initial;&quot;&gt;, numLike:&amp;nbsp;&lt;/span&gt;&lt;span style=&quot;background-color: initial; color: rgb(80, 80, 80);&quot;&gt;int&lt;/span&gt;&lt;span style=&quot;background-color: initial;&quot;&gt;, fechaCreacion: date, &lt;/span&gt;&lt;b style=&quot;background-color: initial;&quot;&gt;&lt;u&gt;IDUsuario&lt;/u&gt;&lt;/b&gt;&lt;span style=&quot;background-color: initial;&quot;&gt;: &lt;/span&gt;&lt;b style=&quot;background-color: initial;&quot;&gt;[REF_Usuario nombreUsuario]&lt;/b&gt;&lt;span style=&quot;background-color: initial;&quot;&gt;)&lt;/span&gt;&lt;span style=&quot;background-color: initial;&quot;&gt;&lt;br&gt;&lt;/span&gt;&lt;b style=&quot;background-color: initial;&quot;&gt;&lt;br&gt;Compartir&lt;/b&gt;&lt;span style=&quot;background-color: initial;&quot;&gt;(&lt;/span&gt;&lt;b style=&quot;background-color: initial;&quot;&gt;&lt;u&gt;IDUsuario&lt;/u&gt;&lt;/b&gt;&lt;span style=&quot;background-color: initial;&quot;&gt;: &lt;/span&gt;&lt;b style=&quot;background-color: initial;&quot;&gt;[REF_Usuario nombreUsuario]&lt;/b&gt;&lt;span style=&quot;background-color: initial;&quot;&gt;,&amp;nbsp;&lt;/span&gt;&lt;b style=&quot;background-color: initial;&quot;&gt;&lt;u&gt;IDTweet&lt;/u&gt;: [REF_Tweet ID]&lt;/b&gt;&lt;span style=&quot;background-color: initial;&quot;&gt;)&lt;br&gt;&lt;/span&gt;&lt;br&gt;&lt;b style=&quot;background-color: initial;&quot;&gt;DarLike&lt;/b&gt;&lt;span style=&quot;background-color: initial;&quot;&gt;(&lt;/span&gt;&lt;b style=&quot;background-color: initial;&quot;&gt;&lt;u&gt;IDUsuario&lt;/u&gt;&lt;/b&gt;&lt;span style=&quot;background-color: initial;&quot;&gt;: &lt;/span&gt;&lt;b style=&quot;background-color: initial;&quot;&gt;[REF_Usuario nombreUsuario]&lt;/b&gt;&lt;span style=&quot;background-color: initial;&quot;&gt;,&amp;nbsp;&lt;/span&gt;&lt;b style=&quot;background-color: initial;&quot;&gt;&lt;u&gt;IDTweet&lt;/u&gt;: [REF_Tweet ID]&lt;/b&gt;&lt;span style=&quot;background-color: initial;&quot;&gt;)&lt;/span&gt;&lt;br&gt;&lt;p class=&quot;MsoNormal&quot;&gt;&lt;b&gt;Comentario&lt;/b&gt;(&lt;b&gt;&lt;u&gt;ID&lt;/u&gt;&lt;/b&gt;: &lt;span style=&quot;color:#505050&quot;&gt;int&lt;/span&gt;, contenido: varchar, fechaCreacion:&amp;nbsp;&lt;span style=&quot;color:#505050&quot;&gt;date&lt;/span&gt;, &lt;b&gt;&lt;u&gt;IDUsuario&lt;/u&gt;&lt;/b&gt;: &lt;b&gt;[REF_Usuario nombreUsuario]&lt;/b&gt;, &lt;b&gt;&lt;u&gt;IDTweet&lt;/u&gt;: [REF_Tweet ID]&lt;/b&gt;)&lt;/p&gt;&lt;b style=&quot;background-color: initial;&quot;&gt;Hashtag&lt;/b&gt;&lt;span style=&quot;background-color: initial;&quot;&gt;(&lt;/span&gt;&lt;b style=&quot;background-color: initial;&quot;&gt;&lt;u&gt;ID&lt;/u&gt;&lt;/b&gt;&lt;span style=&quot;background-color: initial;&quot;&gt;: &lt;/span&gt;&lt;span style=&quot;background-color: initial; color: rgb(80, 80, 80);&quot;&gt;int&lt;/span&gt;&lt;span style=&quot;background-color: initial;&quot;&gt;, &lt;/span&gt;&lt;span style=&quot;background-color: initial;&quot;&gt;nombre: &lt;/span&gt;&lt;span style=&quot;background-color: initial; color: rgb(80, 80, 80);&quot;&gt;varchar&lt;/span&gt;&lt;span style=&quot;background-color: initial;&quot;&gt;, &lt;/span&gt;&lt;b style=&quot;background-color: initial;&quot;&gt;&lt;u&gt;IDUsuario&lt;/u&gt;&lt;/b&gt;&lt;span style=&quot;background-color: initial;&quot;&gt;: &lt;/span&gt;&lt;b style=&quot;background-color: initial;&quot;&gt;[REF_Usuario nombreUsuario]&lt;/b&gt;&lt;span style=&quot;background-color: initial;&quot;&gt;)&lt;br&gt;&lt;/span&gt;&lt;br&gt;&lt;b style=&quot;background-color: initial;&quot;&gt;&lt;span lang=&quot;EN-US&quot;&gt;Asociar&lt;/span&gt;&lt;/b&gt;&lt;span style=&quot;background-color: initial;&quot; lang=&quot;EN-US&quot;&gt;(&lt;b&gt;&lt;u&gt;IDHasthag&lt;/u&gt;&lt;/b&gt;: &lt;b&gt;[REF_Hashtag ID]&lt;/b&gt;, &lt;b&gt;&lt;u&gt;IDTweet&lt;/u&gt;: [REF_Tweet ID]&lt;/b&gt;)&amp;nbsp;&lt;/span&gt;&lt;span style=&quot;background-color: initial;&quot;&gt;&lt;br&gt;&lt;/span&gt;&lt;br&gt;" style="text;html=1;strokeColor=none;fillColor=#dbdbdb;align=left;verticalAlign=top;whiteSpace=wrap;rounded=0;fontSize=12;spacing=5;" parent="1" vertex="1">
          <mxGeometry x="-360" y="820" width="790" height="240" as="geometry" />
        </mxCell>
        <mxCell id="CPWmmdeJDW9y51N6vrC7-2" value="foto" style="ellipse;whiteSpace=wrap;html=1;align=center;" parent="1" vertex="1">
          <mxGeometry x="280" y="620" width="100" height="40" as="geometry" />
        </mxCell>
        <mxCell id="CPWmmdeJDW9y51N6vrC7-4" value="" style="endArrow=none;html=1;rounded=0;exitX=1;exitY=0.75;exitDx=0;exitDy=0;entryX=0;entryY=0.5;entryDx=0;entryDy=0;" parent="1" source="vRgjC-KuwLONajDQIYyj-15" target="CPWmmdeJDW9y51N6vrC7-2" edge="1">
          <mxGeometry width="50" height="50" relative="1" as="geometry">
            <mxPoint x="280" y="430" as="sourcePoint" />
            <mxPoint x="330" y="380" as="targetPoint" />
          </mxGeometry>
        </mxCell>
      </root>
    </mxGraphModel>
  </diagram>
</mxfile>
